<svg version="1.2" xmlns="http://www.w3.org/2000/svg" viewBox="0 0 31 31" width="31" height="31">
	<title>paw-link-31</title>
	<defs>
		<clipPath clipPathUnits="userSpaceOnUse" id="cp1">
			<path d="m22 8.27h8.08v9.3h-8.08z"/>
		</clipPath>
		<clipPath clipPathUnits="userSpaceOnUse" id="cp2">
			<path d="m16 1.43h8.8v10.57h-8.8z"/>
		</clipPath>
		<clipPath clipPathUnits="userSpaceOnUse" id="cp3">
			<path d="m7 1.43h8.5v10.57h-8.5z"/>
		</clipPath>
		<clipPath clipPathUnits="userSpaceOnUse" id="cp4">
			<path d="m5.44 11.67h20.76v16.76h-20.76z"/>
		</clipPath>
		<clipPath clipPathUnits="userSpaceOnUse" id="cp5">
			<path d="m0.9 8.27h8.1v9.3h-8.1z"/>
		</clipPath>
	</defs>
	<style>
		.s0 { fill: #ff8f3f } 
	</style>
	<filter id="f0">
		<feFlood flood-color="#5a3b1e" flood-opacity="1" />
		<feBlend mode="normal" in2="SourceGraphic"/>
		<feComposite in2="SourceAlpha" operator="in" />
	</filter>
	<g id="surface1" filter="url(#f0)">
		<g id="Clip-Path" clip-path="url(#cp1)">
			<g>
				<path class="s0" d="m25.1 17.5q-0.1 0-0.2 0c-0.7-0.1-1.4-0.4-1.8-0.9q-0.6-0.7-0.8-1.6-0.2-0.7-0.1-1.5 0.2-1.5 1.2-2.8 0.4-0.4 0.8-0.8c0.6-0.5 1.2-0.8 1.9-1 0.5-0.1 0.9-0.1 1.4 0q1 0.2 1.7 0.9c0.4 0.4 0.7 1 0.8 1.6q0.1 0.5 0.1 1v0.1q0 0.2 0 0.3v0.1q-0.2 1.1-0.8 2.1-0.4 0.7-1.1 1.3-0.8 0.8-1.9 1.1c-0.4 0.1-0.8 0.2-1.2 0.1z"/>
			</g>
		</g>
		<g id="Clip-Path" clip-path="url(#cp2)">
			<g>
				<path class="s0" d="m24 7.7q-0.3 1.1-0.9 2c-0.5 0.6-0.9 1-1.5 1.3q-0.6 0.5-1.4 0.5h-0.3q-0.8 0-1.4-0.4c-0.4-0.2-0.8-0.6-1.1-1q-0.7-0.9-0.9-2.1-0.1-0.6-0.1-1.1 0-0.5 0.1-0.9 0.1-0.8 0.4-1.5 0.5-1.2 1.3-2 0.7-0.6 1.4-0.8 0.9-0.3 1.8-0.1 0.9 0.2 1.6 0.9c0.4 0.4 0.6 0.9 0.9 1.4 0.2 0.7 0.3 1.4 0.3 2.1 0 0.2 0 0.3 0 0.5q-0.1 0.6-0.2 1.2z"/>
			</g>
		</g>
		<g id="Clip-Path" clip-path="url(#cp3)">
			<g>
				<path class="s0" d="m14.8 9.2q-0.3 1-1 1.6c-0.6 0.5-1.2 0.8-2 0.9h-0.2c-0.4 0-0.7-0.1-1.1-0.1-0.6-0.2-1.1-0.6-1.6-1q-0.7-0.7-1.1-1.7-0.6-1.3-0.7-2.7c0-0.5 0-1.1 0.2-1.6 0.1-0.7 0.4-1.2 0.7-1.7 0.6-0.8 1.4-1.2 2.3-1.4q0 0 0 0h0.8c0.4 0.1 0.9 0.2 1.2 0.4q0.8 0.5 1.5 1.3c0.4 0.5 0.7 1.2 1 1.9 0.2 0.6 0.3 1.3 0.3 2q0.1 0.4 0 0.8-0.1 0.7-0.3 1.3z"/>
			</g>
		</g>
		<g id="Clip-Path" clip-path="url(#cp4)">
			<g>
				<path class="s0" d="m6.7 20.1q0.6-0.9 1.5-1.7 0.7-0.6 1.2-1.3c0.4-0.5 0.8-1 1.1-1.4l0.2-0.4q0.3-0.5 0.7-1 0.5-0.8 1-1.3 0.9-0.8 2.1-1.1c0.6-0.2 1.1-0.2 1.6-0.2q0.8 0 1.4 0.3c0.6 0.2 1.1 0.6 1.6 1.1q0.4 0.4 0.9 1 0.5 0.7 0.9 1.3l0.2 0.2c0.4 0.6 0.8 1.1 1.2 1.6 0.4 0.5 0.8 0.9 1.1 1.2 0.5 0.4 0.9 0.8 1.3 1.3q0.8 1 1.1 2.2 0.3 0.7 0.3 1.5c0.1 0.5 0 0.9-0.1 1.4q-0.3 1.8-1.8 2.8-0.9 0.7-2 0.8c-0.1 0-0.2 0-0.3 0h-0.5c-0.2 0-0.5 0-0.8-0.1-0.6-0.1-1.2-0.3-1.8-0.4h-0.1c-0.5-0.1-1.1-0.3-1.6-0.4-0.2 0-0.5-0.1-0.8-0.1q-0.6 0-1.1 0-0.7 0.1-1.5 0.3c-0.3 0.1-0.5 0.2-0.8 0.2q-0.5 0.2-1.1 0.3c-0.4 0.1-0.8 0.2-1.3 0.2h-0.8c0 0-0.1 0-0.1-0.1q-0.3 0-0.6-0.1-0.8-0.2-1.6-0.7c-0.6-0.5-1.1-1-1.5-1.7-0.3-0.8-0.5-1.5-0.4-2.4 0-0.5 0.1-1 0.3-1.5q0.3-1 0.9-1.8z"/>
			</g>
		</g>
		<g id="Clip-Path" clip-path="url(#cp5)">
			<g>
				<path class="s0" d="m1 11.4c0.2-0.6 0.4-1.2 0.8-1.6q0.7-0.7 1.8-0.9c0.4-0.1 0.9-0.1 1.3 0 0.7 0.2 1.4 0.5 2 1q0.4 0.4 0.7 0.8 1.1 1.3 1.2 2.8 0.1 0.8 0 1.5-0.2 0.9-0.8 1.6c-0.5 0.5-1.1 0.8-1.8 0.9q-0.1 0-0.2 0c-0.4 0.1-0.8 0-1.3-0.1q-1-0.3-1.9-1.1-0.6-0.6-1.1-1.3-0.5-1-0.7-2.1v-0.1q0-0.1 0-0.3v-0.1q-0.1-0.5 0-1z"/>
			</g>
		</g>
	</g>
</svg>