<svg version="1.2" xmlns="http://www.w3.org/2000/svg" viewBox="0 0 43 41" width="43" height="41">
	<title>paw-link-40</title>
	<defs>
		<clipPath clipPathUnits="userSpaceOnUse" id="cp1">
			<path d="m29.33 10.67h10.82v12h-10.82z"/>
		</clipPath>
		<clipPath clipPathUnits="userSpaceOnUse" id="cp2">
			<path d="m21.33 1.85h12v14.15h-12z"/>
		</clipPath>
		<clipPath clipPathUnits="userSpaceOnUse" id="cp3">
			<path d="m9.33 1.85h12v14.15h-12z"/>
		</clipPath>
		<clipPath clipPathUnits="userSpaceOnUse" id="cp4">
			<path d="m8.35 15.06h26.79v21.62h-26.79z"/>
		</clipPath>
		<clipPath clipPathUnits="userSpaceOnUse" id="cp5">
			<path d="m2.5 10.67h10.83v12h-10.83z"/>
		</clipPath>
	</defs>
	<style>
		.s0 { fill: #ff8f3f } 
	</style>
	<filter id="f0">
		<feFlood flood-color="#5a3b1e" flood-opacity="1" />
		<feBlend mode="normal" in2="SourceGraphic"/>
		<feComposite in2="SourceAlpha" operator="in" />
	</filter>
	<g id="Carpeta 1" filter="url(#f0)">
		<g id="Clip-Path" clip-path="url(#cp1)">
			<g>
				<path class="s0" d="m33.7 22.6q-0.1 0-0.3 0c-0.9-0.1-1.7-0.6-2.3-1.2q-0.7-0.8-1-2c-0.2-0.6-0.2-1.3-0.1-1.9 0.2-1.3 0.7-2.6 1.6-3.7q0.4-0.5 0.9-1c0.8-0.7 1.7-1.1 2.6-1.3 0.6-0.1 1.1-0.1 1.7-0.1q1.3 0.3 2.3 1.3c0.5 0.5 0.8 1.3 1 2.1q0.1 0.6 0.1 1.2v0.2q-0.1 0.1-0.1 0.3v0.1q-0.2 1.5-0.9 2.7-0.6 1-1.4 1.7-1.2 1.1-2.5 1.4c-0.6 0.2-1.1 0.3-1.6 0.2z"/>
			</g>
		</g>
		<g id="Clip-Path" clip-path="url(#cp2)">
			<g>
				<path class="s0" d="m32.3 9.9q-0.4 1.5-1.2 2.6c-0.6 0.8-1.1 1.3-1.8 1.7q-0.9 0.6-1.9 0.7h-0.4q-1 0-1.8-0.6c-0.5-0.3-1-0.7-1.4-1.3q-0.9-1.1-1.2-2.7 0-0.7-0.1-1.4 0.1-0.6 0.1-1.2 0.2-0.9 0.5-1.9 0.7-1.5 1.8-2.5 0.8-0.8 1.7-1.1 1.2-0.5 2.4-0.1 1.1 0.2 2 1.2c0.5 0.5 0.8 1.1 1.1 1.8 0.3 0.8 0.5 1.7 0.5 2.7 0 0.2-0.1 0.3-0.1 0.6 0 0.5-0.1 1-0.2 1.5z"/>
			</g>
		</g>
		<g id="Clip-Path" clip-path="url(#cp3)">
			<g>
				<path class="s0" d="m20.5 11.9q-0.5 1.2-1.3 2c-0.8 0.7-1.7 1.1-2.7 1.2h-0.2c-0.5 0-1-0.2-1.5-0.2-0.7-0.2-1.3-0.7-1.9-1.2q-1-1-1.5-2.2-0.8-1.6-0.9-3.5c0-0.7 0-1.4 0.2-2 0.2-0.9 0.5-1.6 1-2.2 0.7-1.1 1.7-1.7 2.9-1.8 0 0 0 0 0.1 0h0.9c0.6 0.1 1.2 0.2 1.7 0.5q1 0.6 1.8 1.6c0.6 0.7 1 1.5 1.3 2.4 0.3 0.9 0.4 1.8 0.5 2.6q0 0.6-0.1 1.1-0.1 0.9-0.3 1.7z"/>
			</g>
		</g>
		<g id="Clip-Path" clip-path="url(#cp4)">
			<g>
				<path class="s0" d="m10 25.9q0.8-1.2 2-2.2c0.5-0.5 1.1-1 1.5-1.6 0.5-0.6 1-1.3 1.3-1.9l0.3-0.4c0.3-0.5 0.6-0.9 0.9-1.4 0.5-0.6 0.9-1.2 1.3-1.6q1.2-1.1 2.8-1.5c0.7-0.1 1.4-0.2 2-0.2q1 0 1.9 0.4c0.7 0.3 1.3 0.7 2 1.4q0.5 0.5 1.2 1.3 0.6 0.8 1.1 1.6l0.3 0.4c0.5 0.6 1 1.4 1.5 2.1 0.5 0.5 1 1 1.5 1.4 0.5 0.5 1.1 1.1 1.6 1.7 0.6 0.9 1.1 1.8 1.5 2.8q0.3 1 0.4 2c0 0.6 0 1.2-0.2 1.7q-0.5 2.4-2.4 3.7-1.1 0.9-2.5 1c-0.2 0-0.2 0-0.4 0h-0.6c-0.4 0-0.7 0-1 0-0.9-0.2-1.7-0.4-2.4-0.6h-0.1c-0.7-0.2-1.4-0.4-2.1-0.5-0.3-0.1-0.7-0.1-1.1-0.1q-0.7-0.1-1.3 0-0.9 0.1-2 0.4c-0.3 0.1-0.7 0.2-1 0.3q-0.7 0.1-1.5 0.3c-0.5 0.2-1 0.3-1.6 0.3h-1c-0.1 0-0.1-0.1-0.2-0.2-0.3 0-0.6 0-0.8-0.1q-1-0.3-2-0.9c-0.8-0.6-1.5-1.4-1.9-2.2-0.4-1-0.7-2-0.6-3.1 0-0.6 0.2-1.3 0.4-2 0.3-0.8 0.6-1.5 1.2-2.3z"/>
			</g>
		</g>
		<g id="Clip-Path" clip-path="url(#cp5)">
			<g>
				<path class="s0" d="m2.7 14.8c0.1-0.8 0.5-1.6 1-2.1q0.9-1 2.3-1.3c0.5 0 1.1 0 1.7 0.1 0.9 0.2 1.7 0.6 2.5 1.3q0.6 0.5 1 1c0.9 1.1 1.4 2.4 1.5 3.7 0.1 0.6 0.1 1.3-0.1 1.9q-0.2 1.2-1 2c-0.6 0.6-1.4 1.1-2.3 1.2q-0.1 0-0.2 0c-0.5 0.1-1.1 0-1.6-0.2q-1.4-0.3-2.5-1.4-0.9-0.7-1.4-1.7-0.8-1.2-1-2.7v-0.1q0-0.2 0-0.3v-0.2q-0.1-0.6 0.1-1.2z"/>
			</g>
		</g>
	</g>
</svg>